<svg id="visual" viewBox="0 0 900 600" width="900" height="600" xmlns="http://www.w3.org/2000/svg" xmlns:xlink="http://www.w3.org/1999/xlink" version="1.1"><rect x="0" y="0" width="900" height="600" fill="#fff"></rect><defs><linearGradient id="grad1_0" x1="33.3%" y1="0%" x2="100%" y2="100%"><stop offset="20%" stop-color="#ffffff" stop-opacity="1"></stop><stop offset="80%" stop-color="#ffffff" stop-opacity="1"></stop></linearGradient></defs><defs><linearGradient id="grad2_0" x1="0%" y1="0%" x2="66.7%" y2="100%"><stop offset="20%" stop-color="#ffffff" stop-opacity="1"></stop><stop offset="80%" stop-color="#ffffff" stop-opacity="1"></stop></linearGradient></defs><g transform="translate(900, 0)"><path d="M0 243.4C-32.2 240.2 -64.3 237 -93.1 224.8C-122 212.7 -147.4 191.5 -167.6 167.6C-187.7 143.7 -202.6 117.2 -214.3 88.8C-226.1 60.4 -234.7 30.2 -243.4 0L0 0Z" fill="#0066ff"></path></g><g transform="translate(0, 600)"><path d="M0 -243.4C23.5 -220.1 47.1 -196.9 78.1 -188.5C109 -180.1 147.5 -186.6 172.1 -172.1C196.7 -157.6 207.5 -122.1 217.1 -89.9C226.7 -57.8 235 -28.9 243.4 0L0 0Z" fill="#0066ff"></path></g></svg>