<svg id="visual" viewBox="0 0 900 600" width="900" height="600" xmlns="http://www.w3.org/2000/svg" xmlns:xlink="http://www.w3.org/1999/xlink" version="1.1"><rect x="0" y="0" width="900" height="600" fill="#fff"></rect><defs><linearGradient id="grad1_0" x1="33.3%" y1="0%" x2="100%" y2="100%"><stop offset="20%" stop-color="#ffffff" stop-opacity="1"></stop><stop offset="80%" stop-color="#ffffff" stop-opacity="1"></stop></linearGradient></defs><defs><linearGradient id="grad2_0" x1="0%" y1="0%" x2="66.7%" y2="100%"><stop offset="20%" stop-color="#ffffff" stop-opacity="1"></stop><stop offset="80%" stop-color="#ffffff" stop-opacity="1"></stop></linearGradient></defs><g transform="translate(900, 0)"><path d="M0 378.6C-39.1 353.9 -78.2 329.3 -131.3 316.9C-184.3 304.5 -251.4 304.3 -267.7 267.7C-284 231.1 -249.6 158.2 -259.6 107.5C-269.6 56.9 -324.1 28.4 -378.6 0L0 0Z" fill="#0066ff"></path></g><g transform="translate(0, 600)"><path d="M0 -378.6C33.1 -321.2 66.3 -263.7 98.3 -237.4C130.4 -211.1 161.5 -216 208.6 -208.6C255.7 -201.2 318.8 -181.7 349.8 -144.9C380.8 -108.1 379.7 -54 378.6 0L0 0Z" fill="#0066ff"></path></g></svg>