<svg id="visual" viewBox="0 0 960 540" width="960" height="540" xmlns="http://www.w3.org/2000/svg" xmlns:xlink="http://www.w3.org/1999/xlink" version="1.1"><rect x="0" y="0" width="960" height="540" fill="#fff"></rect><path d="M0 396L17.8 403C35.7 410 71.3 424 106.8 434.8C142.3 445.7 177.7 453.3 213.2 442.8C248.7 432.3 284.3 403.7 320 409.7C355.7 415.7 391.3 456.3 426.8 477.5C462.3 498.7 497.7 500.3 533.2 494.7C568.7 489 604.3 476 640 470.7C675.7 465.3 711.3 467.7 746.8 447.8C782.3 428 817.7 386 853.2 380.2C888.7 374.3 924.3 404.7 942.2 419.8L960 435L960 541L942.2 541C924.3 541 888.7 541 853.2 541C817.7 541 782.3 541 746.8 541C711.3 541 675.7 541 640 541C604.3 541 568.7 541 533.2 541C497.7 541 462.3 541 426.8 541C391.3 541 355.7 541 320 541C284.3 541 248.7 541 213.2 541C177.7 541 142.3 541 106.8 541C71.3 541 35.7 541 17.8 541L0 541Z" fill="#edefff"></path><path d="M0 426L17.8 432C35.7 438 71.3 450 106.8 450.3C142.3 450.7 177.7 439.3 213.2 431.8C248.7 424.3 284.3 420.7 320 430.5C355.7 440.3 391.3 463.7 426.8 470.7C462.3 477.7 497.7 468.3 533.2 462.2C568.7 456 604.3 453 640 460.8C675.7 468.7 711.3 487.3 746.8 496.7C782.3 506 817.7 506 853.2 483C888.7 460 924.3 414 942.2 391L960 368L960 541L942.2 541C924.3 541 888.7 541 853.2 541C817.7 541 782.3 541 746.8 541C711.3 541 675.7 541 640 541C604.3 541 568.7 541 533.2 541C497.7 541 462.3 541 426.8 541C391.3 541 355.7 541 320 541C284.3 541 248.7 541 213.2 541C177.7 541 142.3 541 106.8 541C71.3 541 35.7 541 17.8 541L0 541Z" fill="#d4d7fd"></path><path d="M0 441L17.8 442.3C35.7 443.7 71.3 446.3 106.8 447.3C142.3 448.3 177.7 447.7 213.2 451.7C248.7 455.7 284.3 464.3 320 458.2C355.7 452 391.3 431 426.8 435.2C462.3 439.3 497.7 468.7 533.2 484.7C568.7 500.7 604.3 503.3 640 493.8C675.7 484.3 711.3 462.7 746.8 461.7C782.3 460.7 817.7 480.3 853.2 491C888.7 501.7 924.3 503.3 942.2 504.2L960 505L960 541L942.2 541C924.3 541 888.7 541 853.2 541C817.7 541 782.3 541 746.8 541C711.3 541 675.7 541 640 541C604.3 541 568.7 541 533.2 541C497.7 541 462.3 541 426.8 541C391.3 541 355.7 541 320 541C284.3 541 248.7 541 213.2 541C177.7 541 142.3 541 106.8 541C71.3 541 35.7 541 17.8 541L0 541Z" fill="#bcbefa"></path><path d="M0 447L17.8 458C35.7 469 71.3 491 106.8 499.8C142.3 508.7 177.7 504.3 213.2 493.5C248.7 482.7 284.3 465.3 320 466.3C355.7 467.3 391.3 486.7 426.8 490.7C462.3 494.7 497.7 483.3 533.2 473C568.7 462.7 604.3 453.3 640 460C675.7 466.7 711.3 489.3 746.8 498.8C782.3 508.3 817.7 504.7 853.2 504.3C888.7 504 924.3 507 942.2 508.5L960 510L960 541L942.2 541C924.3 541 888.7 541 853.2 541C817.7 541 782.3 541 746.8 541C711.3 541 675.7 541 640 541C604.3 541 568.7 541 533.2 541C497.7 541 462.3 541 426.8 541C391.3 541 355.7 541 320 541C284.3 541 248.7 541 213.2 541C177.7 541 142.3 541 106.8 541C71.3 541 35.7 541 17.8 541L0 541Z" fill="#a7a5f5"></path><path d="M0 486L17.8 489.8C35.7 493.7 71.3 501.3 106.8 500.8C142.3 500.3 177.7 491.7 213.2 482.8C248.7 474 284.3 465 320 470.8C355.7 476.7 391.3 497.3 426.8 495.3C462.3 493.3 497.7 468.7 533.2 464.3C568.7 460 604.3 476 640 478.8C675.7 481.7 711.3 471.3 746.8 471.5C782.3 471.7 817.7 482.3 853.2 492.3C888.7 502.3 924.3 511.7 942.2 516.3L960 521L960 541L942.2 541C924.3 541 888.7 541 853.2 541C817.7 541 782.3 541 746.8 541C711.3 541 675.7 541 640 541C604.3 541 568.7 541 533.2 541C497.7 541 462.3 541 426.8 541C391.3 541 355.7 541 320 541C284.3 541 248.7 541 213.2 541C177.7 541 142.3 541 106.8 541C71.3 541 35.7 541 17.8 541L0 541Z" fill="#948cef"></path><path d="M0 511L17.8 509.8C35.7 508.7 71.3 506.3 106.8 505.2C142.3 504 177.7 504 213.2 508C248.7 512 284.3 520 320 517.3C355.7 514.7 391.3 501.3 426.8 496.7C462.3 492 497.7 496 533.2 495.8C568.7 495.7 604.3 491.3 640 487.3C675.7 483.3 711.3 479.7 746.8 480.7C782.3 481.7 817.7 487.3 853.2 487C888.7 486.7 924.3 480.3 942.2 477.2L960 474L960 541L942.2 541C924.3 541 888.7 541 853.2 541C817.7 541 782.3 541 746.8 541C711.3 541 675.7 541 640 541C604.3 541 568.7 541 533.2 541C497.7 541 462.3 541 426.8 541C391.3 541 355.7 541 320 541C284.3 541 248.7 541 213.2 541C177.7 541 142.3 541 106.8 541C71.3 541 35.7 541 17.8 541L0 541Z" fill="#8273e8"></path><path d="M0 493L17.8 496.2C35.7 499.3 71.3 505.7 106.8 509.5C142.3 513.3 177.7 514.7 213.2 517.3C248.7 520 284.3 524 320 520C355.7 516 391.3 504 426.8 503C462.3 502 497.7 512 533.2 516.5C568.7 521 604.3 520 640 521.7C675.7 523.3 711.3 527.7 746.8 524.7C782.3 521.7 817.7 511.3 853.2 505.8C888.7 500.3 924.3 499.7 942.2 499.3L960 499L960 541L942.2 541C924.3 541 888.7 541 853.2 541C817.7 541 782.3 541 746.8 541C711.3 541 675.7 541 640 541C604.3 541 568.7 541 533.2 541C497.7 541 462.3 541 426.8 541C391.3 541 355.7 541 320 541C284.3 541 248.7 541 213.2 541C177.7 541 142.3 541 106.8 541C71.3 541 35.7 541 17.8 541L0 541Z" fill="#7258df"></path></svg>