<svg id="visual" viewBox="0 0 960 540" width="960" height="540" xmlns="http://www.w3.org/2000/svg" xmlns:xlink="http://www.w3.org/1999/xlink" version="1.1"><path d="M0 28L12.3 28.8C24.7 29.7 49.3 31.3 74 31.3C98.7 31.3 123.3 29.7 148 28C172.7 26.3 197.3 24.7 221.8 25.5C246.3 26.3 270.7 29.7 295.2 29.7C319.7 29.7 344.3 26.3 369 25.5C393.7 24.7 418.3 26.3 443 26.3C467.7 26.3 492.3 24.7 517 25.5C541.7 26.3 566.3 29.7 591 29.7C615.7 29.7 640.3 26.3 664.8 25.5C689.3 24.7 713.7 26.3 738.2 28C762.7 29.7 787.3 31.3 812 30.5C836.7 29.7 861.3 26.3 886 24.7C910.7 23 935.3 23 947.7 23L960 23L960 0L947.7 0C935.3 0 910.7 0 886 0C861.3 0 836.7 0 812 0C787.3 0 762.7 0 738.2 0C713.7 0 689.3 0 664.8 0C640.3 0 615.7 0 591 0C566.3 0 541.7 0 517 0C492.3 0 467.7 0 443 0C418.3 0 393.7 0 369 0C344.3 0 319.7 0 295.2 0C270.7 0 246.3 0 221.8 0C197.3 0 172.7 0 148 0C123.3 0 98.7 0 74 0C49.3 0 24.7 0 12.3 0L0 0Z" fill="#ffffff"></path><path d="M0 50L12.3 50.8C24.7 51.7 49.3 53.3 74 52.3C98.7 51.3 123.3 47.7 148 46.8C172.7 46 197.3 48 221.8 49C246.3 50 270.7 50 295.2 50C319.7 50 344.3 50 369 50C393.7 50 418.3 50 443 49C467.7 48 492.3 46 517 46C541.7 46 566.3 48 591 48C615.7 48 640.3 46 664.8 45C689.3 44 713.7 44 738.2 46.7C762.7 49.3 787.3 54.7 812 55.7C836.7 56.7 861.3 53.3 886 50.7C910.7 48 935.3 46 947.7 45L960 44L960 21L947.7 21C935.3 21 910.7 21 886 22.7C861.3 24.3 836.7 27.7 812 28.5C787.3 29.3 762.7 27.7 738.2 26C713.7 24.3 689.3 22.7 664.8 23.5C640.3 24.3 615.7 27.7 591 27.7C566.3 27.7 541.7 24.3 517 23.5C492.3 22.7 467.7 24.3 443 24.3C418.3 24.3 393.7 22.7 369 23.5C344.3 24.3 319.7 27.7 295.2 27.7C270.7 27.7 246.3 24.3 221.8 23.5C197.3 22.7 172.7 24.3 148 26C123.3 27.7 98.7 29.3 74 29.3C49.3 29.3 24.7 27.7 12.3 26.8L0 26Z" fill="#fbfbff"></path><path d="M0 87L12.3 87C24.7 87 49.3 87 74 87C98.7 87 123.3 87 148 86.2C172.7 85.3 197.3 83.7 221.8 82.8C246.3 82 270.7 82 295.2 82C319.7 82 344.3 82 369 82C393.7 82 418.3 82 443 82C467.7 82 492.3 82 517 82C541.7 82 566.3 82 591 81.2C615.7 80.3 640.3 78.7 664.8 78.7C689.3 78.7 713.7 80.3 738.2 82C762.7 83.7 787.3 85.3 812 84.5C836.7 83.7 861.3 80.3 886 77.7C910.7 75 935.3 73 947.7 72L960 71L960 42L947.7 43C935.3 44 910.7 46 886 48.7C861.3 51.3 836.7 54.7 812 53.7C787.3 52.7 762.7 47.3 738.2 44.7C713.7 42 689.3 42 664.8 43C640.3 44 615.7 46 591 46C566.3 46 541.7 44 517 44C492.3 44 467.7 46 443 47C418.3 48 393.7 48 369 48C344.3 48 319.7 48 295.2 48C270.7 48 246.3 48 221.8 47C197.3 46 172.7 44 148 44.8C123.3 45.7 98.7 49.3 74 50.3C49.3 51.3 24.7 49.7 12.3 48.8L0 48Z" fill="#f7f8ff"></path><path d="M0 109L12.3 108.2C24.7 107.3 49.3 105.7 74 104.8C98.7 104 123.3 104 148 103C172.7 102 197.3 100 221.8 100C246.3 100 270.7 102 295.2 102C319.7 102 344.3 100 369 100C393.7 100 418.3 102 443 103C467.7 104 492.3 104 517 103C541.7 102 566.3 100 591 99C615.7 98 640.3 98 664.8 99C689.3 100 713.7 102 738.2 103.8C762.7 105.7 787.3 107.3 812 106.3C836.7 105.3 861.3 101.7 886 99C910.7 96.3 935.3 94.7 947.7 93.8L960 93L960 69L947.7 70C935.3 71 910.7 73 886 75.7C861.3 78.3 836.7 81.7 812 82.5C787.3 83.3 762.7 81.7 738.2 80C713.7 78.3 689.3 76.7 664.8 76.7C640.3 76.7 615.7 78.3 591 79.2C566.3 80 541.7 80 517 80C492.3 80 467.7 80 443 80C418.3 80 393.7 80 369 80C344.3 80 319.7 80 295.2 80C270.7 80 246.3 80 221.8 80.8C197.3 81.7 172.7 83.3 148 84.2C123.3 85 98.7 85 74 85C49.3 85 24.7 85 12.3 85L0 85Z" fill="#f3f4ff"></path><path d="M0 190L12.3 196.3C24.7 202.7 49.3 215.3 74 218C98.7 220.7 123.3 213.3 148 211.5C172.7 209.7 197.3 213.3 221.8 214.3C246.3 215.3 270.7 213.7 295.2 212.8C319.7 212 344.3 212 369 212C393.7 212 418.3 212 443 211C467.7 210 492.3 208 517 208.8C541.7 209.7 566.3 213.3 591 214.3C615.7 215.3 640.3 213.7 664.8 214.5C689.3 215.3 713.7 218.7 738.2 220.3C762.7 222 787.3 222 812 214.8C836.7 207.7 861.3 193.3 886 184.3C910.7 175.3 935.3 171.7 947.7 169.8L960 168L960 91L947.7 91.8C935.3 92.7 910.7 94.3 886 97C861.3 99.7 836.7 103.3 812 104.3C787.3 105.3 762.7 103.7 738.2 101.8C713.7 100 689.3 98 664.8 97C640.3 96 615.7 96 591 97C566.3 98 541.7 100 517 101C492.3 102 467.7 102 443 101C418.3 100 393.7 98 369 98C344.3 98 319.7 100 295.2 100C270.7 100 246.3 98 221.8 98C197.3 98 172.7 100 148 101C123.3 102 98.7 102 74 102.8C49.3 103.7 24.7 105.3 12.3 106.2L0 107Z" fill="#eff0ff"></path><path d="M0 222L12.3 226.5C24.7 231 49.3 240 74 241C98.7 242 123.3 235 148 236C172.7 237 197.3 246 221.8 246.8C246.3 247.7 270.7 240.3 295.2 238.5C319.7 236.7 344.3 240.3 369 243C393.7 245.7 418.3 247.3 443 246.5C467.7 245.7 492.3 242.3 517 240.7C541.7 239 566.3 239 591 238C615.7 237 640.3 235 664.8 235.8C689.3 236.7 713.7 240.3 738.2 244.8C762.7 249.3 787.3 254.7 812 250.2C836.7 245.7 861.3 231.3 886 220.5C910.7 209.7 935.3 202.3 947.7 198.7L960 195L960 166L947.7 167.8C935.3 169.7 910.7 173.3 886 182.3C861.3 191.3 836.7 205.7 812 212.8C787.3 220 762.7 220 738.2 218.3C713.7 216.7 689.3 213.3 664.8 212.5C640.3 211.7 615.7 213.3 591 212.3C566.3 211.3 541.7 207.7 517 206.8C492.3 206 467.7 208 443 209C418.3 210 393.7 210 369 210C344.3 210 319.7 210 295.2 210.8C270.7 211.7 246.3 213.3 221.8 212.3C197.3 211.3 172.7 207.7 148 209.5C123.3 211.3 98.7 218.7 74 216C49.3 213.3 24.7 200.7 12.3 194.3L0 188Z" fill="#edefff"></path><path d="M0 249L12.3 253.5C24.7 258 49.3 267 74 267C98.7 267 123.3 258 148 259.8C172.7 261.7 197.3 274.3 221.8 274.3C246.3 274.3 270.7 261.7 295.2 258.2C319.7 254.7 344.3 260.3 369 263.2C393.7 266 418.3 266 443 265C467.7 264 492.3 262 517 262C541.7 262 566.3 264 591 265C615.7 266 640.3 266 664.8 265C689.3 264 713.7 262 738.2 264.7C762.7 267.3 787.3 274.7 812 270.2C836.7 265.7 861.3 249.3 886 237.7C910.7 226 935.3 219 947.7 215.5L960 212L960 193L947.7 196.7C935.3 200.3 910.7 207.7 886 218.5C861.3 229.3 836.7 243.7 812 248.2C787.3 252.7 762.7 247.3 738.2 242.8C713.7 238.3 689.3 234.7 664.8 233.8C640.3 233 615.7 235 591 236C566.3 237 541.7 237 517 238.7C492.3 240.3 467.7 243.7 443 244.5C418.3 245.3 393.7 243.7 369 241C344.3 238.3 319.7 234.7 295.2 236.5C270.7 238.3 246.3 245.7 221.8 244.8C197.3 244 172.7 235 148 234C123.3 233 98.7 240 74 239C49.3 238 24.7 229 12.3 224.5L0 220Z" fill="#edefff"></path><path d="M0 363L12.3 362C24.7 361 49.3 359 74 356.3C98.7 353.7 123.3 350.3 148 353.2C172.7 356 197.3 365 221.8 367.7C246.3 370.3 270.7 366.7 295.2 369.3C319.7 372 344.3 381 369 384.5C393.7 388 418.3 386 443 379.7C467.7 373.3 492.3 362.7 517 361C541.7 359.3 566.3 366.7 591 373C615.7 379.3 640.3 384.7 664.8 380.2C689.3 375.7 713.7 361.3 738.2 355.8C762.7 350.3 787.3 353.7 812 360.8C836.7 368 861.3 379 886 379C910.7 379 935.3 368 947.7 362.5L960 357L960 210L947.7 213.5C935.3 217 910.7 224 886 235.7C861.3 247.3 836.7 263.7 812 268.2C787.3 272.7 762.7 265.3 738.2 262.7C713.7 260 689.3 262 664.8 263C640.3 264 615.7 264 591 263C566.3 262 541.7 260 517 260C492.3 260 467.7 262 443 263C418.3 264 393.7 264 369 261.2C344.3 258.3 319.7 252.7 295.2 256.2C270.7 259.7 246.3 272.3 221.8 272.3C197.3 272.3 172.7 259.7 148 257.8C123.3 256 98.7 265 74 265C49.3 265 24.7 256 12.3 251.5L0 247Z" fill="#eff0ff"></path><path d="M0 390L12.3 388.2C24.7 386.3 49.3 382.7 74 380C98.7 377.3 123.3 375.7 148 379.3C172.7 383 197.3 392 221.8 393.7C246.3 395.3 270.7 389.7 295.2 391.3C319.7 393 344.3 402 369 404.8C393.7 407.7 418.3 404.3 443 399C467.7 393.7 492.3 386.3 517 385.3C541.7 384.3 566.3 389.7 591 394.2C615.7 398.7 640.3 402.3 664.8 398.8C689.3 395.3 713.7 384.7 738.2 380.2C762.7 375.7 787.3 377.3 812 382.7C836.7 388 861.3 397 886 396.2C910.7 395.3 935.3 384.7 947.7 379.3L960 374L960 355L947.7 360.5C935.3 366 910.7 377 886 377C861.3 377 836.7 366 812 358.8C787.3 351.7 762.7 348.3 738.2 353.8C713.7 359.3 689.3 373.7 664.8 378.2C640.3 382.7 615.7 377.3 591 371C566.3 364.7 541.7 357.3 517 359C492.3 360.7 467.7 371.3 443 377.7C418.3 384 393.7 386 369 382.5C344.3 379 319.7 370 295.2 367.3C270.7 364.7 246.3 368.3 221.8 365.7C197.3 363 172.7 354 148 351.2C123.3 348.3 98.7 351.7 74 354.3C49.3 357 24.7 359 12.3 360L0 361Z" fill="#f3f4ff"></path><path d="M0 460L12.3 459.2C24.7 458.3 49.3 456.7 74 454.8C98.7 453 123.3 451 148 454.5C172.7 458 197.3 467 221.8 468.8C246.3 470.7 270.7 465.3 295.2 463.5C319.7 461.7 344.3 463.3 369 463.3C393.7 463.3 418.3 461.7 443 459C467.7 456.3 492.3 452.7 517 449C541.7 445.3 566.3 441.7 591 444.3C615.7 447 640.3 456 664.8 457C689.3 458 713.7 451 738.2 447.5C762.7 444 787.3 444 812 445.8C836.7 447.7 861.3 451.3 886 450.3C910.7 449.3 935.3 443.7 947.7 440.8L960 438L960 372L947.7 377.3C935.3 382.7 910.7 393.3 886 394.2C861.3 395 836.7 386 812 380.7C787.3 375.3 762.7 373.7 738.2 378.2C713.7 382.7 689.3 393.3 664.8 396.8C640.3 400.3 615.7 396.7 591 392.2C566.3 387.7 541.7 382.3 517 383.3C492.3 384.3 467.7 391.7 443 397C418.3 402.3 393.7 405.7 369 402.8C344.3 400 319.7 391 295.2 389.3C270.7 387.7 246.3 393.3 221.8 391.7C197.3 390 172.7 381 148 377.3C123.3 373.7 98.7 375.3 74 378C49.3 380.7 24.7 384.3 12.3 386.2L0 388Z" fill="#f7f8ff"></path><path d="M0 498L12.3 496.2C24.7 494.3 49.3 490.7 74 491.5C98.7 492.3 123.3 497.7 148 501.3C172.7 505 197.3 507 221.8 505.2C246.3 503.3 270.7 497.7 295.2 496.7C319.7 495.7 344.3 499.3 369 498.5C393.7 497.7 418.3 492.3 443 488.8C467.7 485.3 492.3 483.7 517 483.7C541.7 483.7 566.3 485.3 591 488C615.7 490.7 640.3 494.3 664.8 495.2C689.3 496 713.7 494 738.2 493C762.7 492 787.3 492 812 494.8C836.7 497.7 861.3 503.3 886 499.8C910.7 496.3 935.3 483.7 947.7 477.3L960 471L960 436L947.7 438.8C935.3 441.7 910.7 447.3 886 448.3C861.3 449.3 836.7 445.7 812 443.8C787.3 442 762.7 442 738.2 445.5C713.7 449 689.3 456 664.8 455C640.3 454 615.7 445 591 442.3C566.3 439.7 541.7 443.3 517 447C492.3 450.7 467.7 454.3 443 457C418.3 459.7 393.7 461.3 369 461.3C344.3 461.3 319.7 459.7 295.2 461.5C270.7 463.3 246.3 468.7 221.8 466.8C197.3 465 172.7 456 148 452.5C123.3 449 98.7 451 74 452.8C49.3 454.7 24.7 456.3 12.3 457.2L0 458Z" fill="#fbfbff"></path><path d="M0 541L12.3 541C24.7 541 49.3 541 74 541C98.7 541 123.3 541 148 541C172.7 541 197.3 541 221.8 541C246.3 541 270.7 541 295.2 541C319.7 541 344.3 541 369 541C393.7 541 418.3 541 443 541C467.7 541 492.3 541 517 541C541.7 541 566.3 541 591 541C615.7 541 640.3 541 664.8 541C689.3 541 713.7 541 738.2 541C762.7 541 787.3 541 812 541C836.7 541 861.3 541 886 541C910.7 541 935.3 541 947.7 541L960 541L960 469L947.7 475.3C935.3 481.7 910.7 494.3 886 497.8C861.3 501.3 836.7 495.7 812 492.8C787.3 490 762.7 490 738.2 491C713.7 492 689.3 494 664.8 493.2C640.3 492.3 615.7 488.7 591 486C566.3 483.3 541.7 481.7 517 481.7C492.3 481.7 467.7 483.3 443 486.8C418.3 490.3 393.7 495.7 369 496.5C344.3 497.3 319.7 493.7 295.2 494.7C270.7 495.7 246.3 501.3 221.8 503.2C197.3 505 172.7 503 148 499.3C123.3 495.7 98.7 490.3 74 489.5C49.3 488.7 24.7 492.3 12.3 494.2L0 496Z" fill="#ffffff"></path></svg>