<svg id="visual" viewBox="0 0 960 540" width="960" height="540" xmlns="http://www.w3.org/2000/svg" xmlns:xlink="http://www.w3.org/1999/xlink" version="1.1"><rect x="0" y="0" width="960" height="540" fill="#002233"></rect><path d="M0 390L22.8 397.3C45.7 404.7 91.3 419.3 137 419C182.7 418.7 228.3 403.3 274 396.5C319.7 389.7 365.3 391.3 411.2 396.3C457 401.3 503 409.7 548.8 416C594.7 422.3 640.3 426.7 686 431.5C731.7 436.3 777.3 441.7 823 431.8C868.7 422 914.3 397 937.2 384.5L960 372L960 541L937.2 541C914.3 541 868.7 541 823 541C777.3 541 731.7 541 686 541C640.3 541 594.7 541 548.8 541C503 541 457 541 411.2 541C365.3 541 319.7 541 274 541C228.3 541 182.7 541 137 541C91.3 541 45.7 541 22.8 541L0 541Z" fill="#0066FF" stroke-linecap="round" stroke-linejoin="miter"></path></svg>